<svg xmlns="http://www.w3.org/2000/svg" xmlns:xlink="http://www.w3.org/1999/xlink" xmlns:lucid="lucid" width="974" height="806"><g transform="translate(-161 -182)" lucid:page-tab-id=".Q4MUjXso07N"><path d="M371.37 305c0-2.76 2.24-5 5-5h607.26c2.76 0 5 2.24 5 5v631c0 2.76-2.24 5-5 5H376.37c-2.76 0-5-2.24-5-5z" stroke="#333" stroke-width="2" fill-opacity="0"/><use xlink:href="#a" transform="matrix(1,0,0,1,379.3722640148988,308) translate(261.5246913580247 15.11111111111111)"/><path d="M279.75 629.9c0 10.9-8.84 19.75-19.75 19.75-10.9 0-19.75-8.84-19.75-19.75 0-10.9 8.84-19.75 19.75-19.75 10.9 0 19.75 8.85 19.75 19.75z" stroke="#333" fill="#fff"/><path d="M260 649.65v50.3c0 2.77 1.2 6.9 2.67 9.23L300 768.15m-40-63.2l-40 63.2m0-98.75h80" stroke="#333" fill="none"/><path d="M220 615.15c0-2.76 2.24-5 5-5h70c2.76 0 5 2.24 5 5v170c0 2.77-2.24 5-5 5h-70c-2.76 0-5-2.23-5-5z" fill="none"/><use xlink:href="#b" transform="matrix(1,0,0,1,140,768.1538820717883) translate(99.28395061728395 14.888888888888888)"/><path d="M1079.75 479.75c0 10.9-8.84 19.75-19.75 19.75-10.9 0-19.75-8.84-19.75-19.75 0-10.9 8.84-19.75 19.75-19.75 10.9 0 19.75 8.84 19.75 19.75z" stroke="#333" fill="#fff"/><path d="M1060 499.5v50.3c0 2.76 1.2 6.9 2.67 9.22L1100 618m-40-63.2l-40 63.2m0-98.75h80" stroke="#333" fill="none"/><path d="M1020 465c0-2.76 2.24-5 5-5h70c2.76 0 5 2.24 5 5v170c0 2.76-2.24 5-5 5h-70c-2.76 0-5-2.24-5-5z" fill="none"/><use xlink:href="#b" transform="matrix(1,0,0,1,940,618) translate(99.28395061728395 14.888888888888888)"/><path d="M579.55 818.63c0 26.26-40.2 47.55-89.78 47.55S400 844.88 400 818.63c0-26.27 40.2-47.56 89.77-47.56 49.58 0 89.78 21.3 89.78 47.56z" stroke="#fff" fill="#7ab648"/><use xlink:href="#c" transform="matrix(1,0,0,1,426.9322021094385,790.0946496773348) translate(13.740740740740755 20.111111111111114)"/><use xlink:href="#d" transform="matrix(1,0,0,1,426.9322021094385,790.0946496773348) translate(45.74691358024691 46.777777777777786)"/><path d="M647.28 399c0 27.6-40.1 50-89.55 50-49.45 0-89.54-22.4-89.54-50s40.08-50 89.53-50c49.46 0 89.55 22.4 89.55 50z" stroke="#fff" fill="#834187"/><use xlink:href="#e" transform="matrix(1,0,0,1,495.050555106756,368.9999999999492) translate(-9.006172839506164 34.44444444444444)"/><path d="M740 708.07c0 30.38-27.27 55-60.9 55-33.64 0-60.9-24.62-60.9-55 0-30.37 27.26-55 60.9-55 33.63 0 60.9 24.63 60.9 55z" stroke="#333" fill="#fff"/><use xlink:href="#f" transform="matrix(1,0,0,1,636.4632478139387,675.0741881335374) translate(19.5 36.6)"/><path d="M778.2 534.3c0 29.97-26.87 54.27-60 54.27-33.15 0-60-24.3-60-54.28 0-30 26.85-54.3 60-54.3 33.13 0 60 24.3 60 54.3z" stroke="#333" fill="#fff"/><use xlink:href="#g" transform="matrix(1,0,0,1,676.1920562516925,501.7148583601876) translate(-3.9250000000000043 25.799999999999997)"/><use xlink:href="#h" transform="matrix(1,0,0,1,676.1920562516925,501.7148583601876) translate(0.5499999999999972 47.4)"/><path d="M607.28 610.04c0 31.65-28.5 57.3-63.64 57.3-35.15 0-63.64-25.65-63.64-57.3 0-31.66 28.5-57.32 63.64-57.32 35.15 0 63.64 25.66 63.64 57.32z" stroke="#333" fill="#fff"/><use xlink:href="#i" transform="matrix(1,0,0,1,499.0923268520588,575.646723266647) translate(14.5 38.1)"/><path d="M800 575.5c0-4.42 3.58-8 8-8h122.2c4.4 0 8 3.58 8 8v92.57c0 4.42-3.6 8-8 8H808c-4.42 0-8-3.58-8-8z" stroke="#ef8d22" fill="#ef8d22"/><path d="M805.43 580.93c0-4.42 3.58-8 8-8h111.33c4.42 0 8 3.58 8 8v81.72c0 4.4-3.58 8-8 8H813.43c-4.42 0-8-3.6-8-8z" stroke="#ef8d22" fill="#ef8d22"/><path d="M805.43 580.93c0-4.42 3.58-8 8-8h111.33c4.42 0 8 3.58 8 8v81.72c0 4.4-3.58 8-8 8H813.43c-4.42 0-8-3.6-8-8z" fill="none"/><use xlink:href="#j" transform="matrix(1,0,0,1,820,567.500000000025) translate(0.3404320987654401 45.522222222222226)"/><use xlink:href="#k" transform="matrix(1,0,0,1,820,567.500000000025) translate(-8.949074074074062 72.45555555555555)"/><path d="M1029.15 521.24l-.08.26-.08.26-.1.26-.12.26-.12.27-.15.27-.15.28-.2.3-.2.3-.24.32-.27.33-.3.36-.38.38-.42.4-.5.42-.57.46-.7.5-.8.54-1 .6-1.24.68-1.54.76-1.96.87-2.6 1.03-3.5 1.23-5.07 1.52-7.93 2.02-15.4 3.22-60.9 11.33-7.92 2.02-5.06 1.52-2.1.72M1029.3 521.3l.1-4.55" stroke="#19967d" stroke-width="3" fill="none"/><path d="M896.02 564l8.34-12.47 5.74 7.28z" stroke="#19967d" stroke-width="3" fill="#19967d"/><path d="M846.86 565.5l-.22-6.5-1-10.62-1.83-11.62-2.37-10.8-2.6-9.1-2.64-7.4-2.54-5.92-2.38-4.73-2.22-3.8-2.08-3.1-1.95-2.56-1.84-2.12-.53-.55-1.63-1.58-1.85-1.55-2.1-1.5-2.34-1.44-2.65-1.36-2.96-1.28-3.32-1.15-3.66-.96-3.97-.76-4.23-.5-4.37-.18-4.38.13-4.25.44-4 .7-3.68.93-3.3 1.1-.1.02" stroke="#19967d" stroke-width="3" fill="none"/><path d="M848.4 567h-3l-.05-1.5 3-.1z" fill="#19967d"/><path d="M757.65 487.04l8.55-12.32 5.6 7.37z" stroke="#19967d" stroke-width="3" fill="#19967d"/><path d="M300.43 648.28l.08-3.94 1.47-23.24 2.25-21.52 2.9-19.64 3.38-17.75 3.74-15.98 4-14.34 4.17-12.86 4.3-11.56 4.37-10.4 4.4-9.38 4.45-8.5 4.44-7.7 4.44-7 4.44-6.38 4.43-5.84 4.43-5.35 4.43-4.9 4.43-4.54 4.45-4.18 4.47-3.85 4.5-3.56 4.52-3.3 4.57-3.03 4.63-2.8 4.7-2.6 4.8-2.38 4.9-2.17 5-2 5.13-1.78 5.28-1.6 5.47-1.4 5.65-1.2 5.88-1 2.23-.27" stroke="#c92d39" stroke-width="3" fill="none"/><path d="M300.1 664.05l-4.34-14.36 9.27.18zM462.84 399.32l-13.93 5.56-.6-9.25z" stroke="#c92d39" stroke-width="3" fill="#c92d39"/><path d="M308.92 650.9l.6-.6 1.67-1.54 1.92-1.63 2.2-1.7 2.53-1.76 2.87-1.82 3.22-1.85 3.57-1.85 3.93-1.8 4.2-1.7 4.4-1.6 4.56-1.4 4.56-1.18 4.5-.95 4.37-.73 4.16-.5 3.9-.3 3.66-.12 3.38.05 3.12.18 2.87.3 2.63.4 2.42.47 2.23.54 2.06.6 1.9.64 1.75.7 1.63.7 1.5.75 1.4.76 1.32.8 1.22.83 1.15.85 1.08.87 1 .9.96.94.9.95.85 1 .8 1.03.77 1.06.7 1.1.68 1.14.63 1.2.6 1.24.54 1.32.5 1.38.47 1.46.4 1.55.37 1.64.3 1.76.25 1.9.17 2.04.08 2.2-.02 2.43-.13 2.64-.23 2.47-1.6 11.93-8.93 54.13-.7 7.7-.3 6-.02 4.92.15 4.2.28 3.68.4 3.28.48 2.96.55 2.68.63 2.48.25.85" stroke="#c92d39" stroke-width="3" fill="none"/><path d="M302.16 664.55l2.18-14.84 8.3 4.13zM410.47 789.27l-10.76-10.45 8.2-4.33z" stroke="#c92d39" stroke-width="3" fill="#c92d39"/><path d="M575.78 861.76l1.24.48 1.27.43 1.3.38 1.34.33 1.4.28 1.43.22 1.5.18 1.57.1 1.64.06 1.7-.02 1.8-.1 1.9-.18 2-.28 2.13-.38 2.26-.5 2.4-.66 2.53-.8 2.7-.98 2.87-1.2 3.07-1.4 3.26-1.68 3.45-1.96 3.64-2.28 3.8-2.6 3.97-2.98 4.07-3.33 4.14-3.7 4.13-4 4.08-4.27 3.92-4.5 3.72-4.63 3.47-4.72 3.16-4.7 2.85-4.66 2.53-4.54 2.2-4.4 1.9-4.2 1.62-4.02 1.35-3.83.87-2.85" stroke="#c92d39" stroke-width="3" fill="none"/><path d="M563.97 851.8l13.9 5.65-6 7.08zM678.36 768.37l2.4 14.8-9.16-1.4z" stroke="#c92d39" stroke-width="3" fill="#c92d39"/><path d="M488.15 750.04l-.74-5.02-2.6-13.48-5.27-25.47-.93-6.2-.5-4.65-.23-3.83-.07-3.32.06-2.94.16-2.67.26-2.46.34-2.3.42-2.17.48-2.07.56-2 .62-1.92.7-1.87.78-1.85.7-1.5" stroke="#c92d39" stroke-width="3" fill="none"/><path d="M489.4 765.73l-5.75-13.85 9.24-.73zM492.35 651.85L487.42 666l-7.4-5.6z" stroke="#c92d39" stroke-width="3" fill="#c92d39"/><path d="M626.76 453.3l1.3.56 1.76.68 1.97.65 2.24.62 2.6.6 3.05.54 3.7.5 4.75.38 6.73.24 36.5-.3 3.84.32 2.9.37 2.3.42 1.9.42 1.6.45 1.4.46 1.22.47 1.08.48.97.48.7.4" stroke="#c92d39" stroke-width="3" fill="none"/><path d="M615.88 442.53l13.4 6.74-6.52 6.6zM716 475.18l-10.62-10.6 8.26-4.22z" stroke="#c92d39" stroke-width="3" fill="#c92d39"/><path d="M710.06 607.38l-.7.7-2.42 2.08-3.28 2.4-4.9 3.07-30.17 15.97-2.77 2.02-1.98 1.7-1.48 1.48" stroke="#c92d39" stroke-width="3" fill="none"/><path d="M716.22 593.5l-1.55 14.93-8.48-3.76zM659.23 651.18l-1.48-14.93 9.06 1.98z" stroke="#c92d39" stroke-width="3" fill="#c92d39"/><path d="M766.85 569.1l.13.12.66.94.38.8.2.73.08.7-.04.7-.18.78-.37.9-.7 1.08-1.34 1.48-2.88 2.24-7.5 4-22.1 7.6v.02h.1l2.72-.53.77-.1.57.04.46.1.4.18.36.23.35.34.37.47.4.75.44 1.38.52 3.9 1.3 16.83 1.08 3.32 1 1.92.3.46.4.46.48.48.6.5.77.54 1 .58 1.4.63 1.95.68 2.95.74 4.78.75 8.82.56 11.44-.4" stroke="#19967d" stroke-width="3" fill="none"/><path d="M767.94 568.06l-2.12 2.13-1-1.02 1.95-2.28z" fill="#19967d"/><path d="M794.64 625.45l-14.1 5.12-.3-9.26z" stroke="#19967d" stroke-width="3" fill="#19967d"/><path d="M976 246h96c4.42 0 8 3.58 8 8v162.24c0 4.42-3.58 8-8 8H808c-4.42 0-8-3.58-8-8V228c0-4.42 3.58-8 8-8h152c4.42 0 9.05 3.42 10.35 7.65zm-176 0h176" stroke="#333" fill="#fff"/><use xlink:href="#l" transform="matrix(1,0,0,1,808,220) translate(19.049999999999997 16.6)"/><use xlink:href="#m" transform="matrix(1,0,0,1,808,220) translate(61 16.6)"/><use xlink:href="#n" transform="matrix(1,0,0,1,808,220) translate(114.95 16.6)"/><use xlink:href="#o" transform="matrix(1,0,0,1,812,254) translate(56.075000000000045 20.300000000000026)"/><use xlink:href="#p" transform="matrix(1,0,0,1,812,254) translate(162.975 20.300000000000026)"/><use xlink:href="#q" transform="matrix(1,0,0,1,812,254) translate(43.325000000000045 41.90000000000001)"/><use xlink:href="#r" transform="matrix(1,0,0,1,812,254) translate(175.72499999999997 41.90000000000001)"/><use xlink:href="#s" transform="matrix(1,0,0,1,812,254) translate(3.4250000000000824 63.5)"/><use xlink:href="#t" transform="matrix(1,0,0,1,812,254) translate(126.825 63.5)"/><use xlink:href="#u" transform="matrix(1,0,0,1,812,254) translate(17.200000000000074 85.09999999999998)"/><use xlink:href="#v" transform="matrix(1,0,0,1,812,254) translate(47.150000000000055 85.09999999999998)"/><use xlink:href="#w" transform="matrix(1,0,0,1,812,254) translate(138.3 85.09999999999998)"/><use xlink:href="#x" transform="matrix(1,0,0,1,812,254) translate(190.89999999999998 85.09999999999998)"/><use xlink:href="#y" transform="matrix(1,0,0,1,812,254) translate(47.825000000000045 106.69999999999997)"/><use xlink:href="#z" transform="matrix(1,0,0,1,812,254) translate(120.67500000000001 106.69999999999997)"/><use xlink:href="#A" transform="matrix(1,0,0,1,812,254) translate(148.27499999999998 106.69999999999997)"/><use xlink:href="#B" transform="matrix(1,0,0,1,812,254) translate(34.60000000000005 128.29999999999995)"/><use xlink:href="#C" transform="matrix(1,0,0,1,812,254) translate(131.45 128.29999999999995)"/><use xlink:href="#D" transform="matrix(1,0,0,1,812,254) translate(141.45 128.29999999999995)"/><use xlink:href="#E" transform="matrix(1,0,0,1,812,254) translate(67.00000000000004 149.89999999999998)"/><path d="M300.03 667.4l.1-5.4.44-6.8.7-6.76 1-6.72 1.28-6.68 1.57-6.67 1.85-6.65 2.17-6.66 2.47-6.65 2.82-6.66 3.14-6.7 3.5-6.7 3.9-6.72 4.27-6.74 4.7-6.76 5.15-6.77 5.6-6.78 6.1-6.75 6.57-6.73 7.1-6.67 7.63-6.6 8.16-6.45 8.7-6.3 9.2-6.13 9.7-5.87 10.14-5.57 10.55-5.23 10.9-4.86 11.2-4.42 11.4-3.97 11.52-3.47 11.58-2.97 11.56-2.45 11.44-1.93 11.3-1.43 11.08-.93 10.83-.45h10.53l10.22.43 9.9.83 9.53 1.2 9.2 1.57 8.86 1.88 8.52 2.2 8.2 2.47 7.88 2.74 7.6 3 7.28 3.25 7.03 3.5 5.45 3" stroke="#19967d" stroke-width="3" fill="none"/><path d="M301.53 667.4l-.1 4.53-3-.06.05-1.97H300v-1h-1.5l.03-1.57z" fill="#19967d"/><path d="M664.8 499.9l-14.5-3.8 5-7.8z" stroke="#19967d" stroke-width="3" fill="#19967d"/><path d="M351 234.9h81c4.42 0 8 3.6 8 8v105.54c0 4.42-3.58 8-8 8H208c-4.42 0-8-3.58-8-8V216.9c0-4.4 3.58-8 8-8h128c4.42 0 8.93 3.47 10.08 7.74zm-151 0h151" stroke="#333" fill="#fff"/><g><use xlink:href="#l" transform="matrix(1,0,0,1,208,208.9126655269631) translate(7.049999999999997 16.6)"/><use xlink:href="#m" transform="matrix(1,0,0,1,208,208.9126655269631) translate(49 16.6)"/><use xlink:href="#F" transform="matrix(1,0,0,1,208,208.9126655269631) translate(102.95 16.6)"/></g><g><use xlink:href="#G" transform="matrix(1,0,0,1,212,242.9126655269631) translate(31.650000000000063 24.200000000000017)"/><use xlink:href="#p" transform="matrix(1,0,0,1,212,242.9126655269631) translate(147.39999999999998 24.200000000000017)"/><use xlink:href="#H" transform="matrix(1,0,0,1,212,242.9126655269631) translate(21.67500000000004 45.800000000000004)"/><use xlink:href="#I" transform="matrix(1,0,0,1,212,242.9126655269631) translate(169.37499999999997 45.800000000000004)"/><use xlink:href="#J" transform="matrix(1,0,0,1,212,242.9126655269631) translate(0.2000000000000739 67.39999999999999)"/><use xlink:href="#K" transform="matrix(1,0,0,1,212,242.9126655269631) translate(72.10000000000002 67.39999999999999)"/><use xlink:href="#L" transform="matrix(1,0,0,1,212,242.9126655269631) translate(124.99999999999999 67.39999999999999)"/><use xlink:href="#M" transform="matrix(1,0,0,1,212,242.9126655269631) translate(190.84999999999994 67.39999999999999)"/><use xlink:href="#N" transform="matrix(1,0,0,1,212,242.9126655269631) translate(51.65000000000004 88.99999999999997)"/><use xlink:href="#O" transform="matrix(1,0,0,1,212,242.9126655269631) translate(102.55000000000001 88.99999999999997)"/></g><path d="M871 805.6h81c4.42 0 8 3.58 8 8v105.53c0 4.4-3.58 8-8 8H728c-4.42 0-8-3.6-8-8V787.6c0-4.42 3.58-8 8-8h128c4.42 0 8.93 3.46 10.08 7.72zm-151 0h151" stroke="#333" fill="#fff"/><g><use xlink:href="#l" transform="matrix(1,0,0,1,728,779.5999999999999) translate(2.049999999999997 16.6)"/><use xlink:href="#m" transform="matrix(1,0,0,1,728,779.5999999999999) translate(44 16.6)"/><use xlink:href="#P" transform="matrix(1,0,0,1,728,779.5999999999999) translate(97.95 16.6)"/></g><g><use xlink:href="#Q" transform="matrix(1,0,0,1,732,813.5999999999999) translate(4.175000000000068 24.200000000000017)"/><use xlink:href="#R" transform="matrix(1,0,0,1,732,813.5999999999999) translate(74.07500000000003 24.200000000000017)"/><use xlink:href="#S" transform="matrix(1,0,0,1,732,813.5999999999999) translate(118.075 24.200000000000017)"/><use xlink:href="#T" transform="matrix(1,0,0,1,732,813.5999999999999) translate(19.775000000000063 45.800000000000004)"/><use xlink:href="#U" transform="matrix(1,0,0,1,732,813.5999999999999) translate(109.625 45.800000000000004)"/><use xlink:href="#V" transform="matrix(1,0,0,1,732,813.5999999999999) translate(162.22499999999997 45.800000000000004)"/><use xlink:href="#W" transform="matrix(1,0,0,1,732,813.5999999999999) translate(29.125000000000057 67.39999999999999)"/><use xlink:href="#C" transform="matrix(1,0,0,1,732,813.5999999999999) translate(83.07500000000002 67.39999999999999)"/><use xlink:href="#X" transform="matrix(1,0,0,1,732,813.5999999999999) translate(93.07500000000002 67.39999999999999)"/><use xlink:href="#I" transform="matrix(1,0,0,1,732,813.5999999999999) translate(161.92499999999995 67.39999999999999)"/><use xlink:href="#Y" transform="matrix(1,0,0,1,732,813.5999999999999) translate(43.900000000000034 88.99999999999997)"/></g><path d="M621.6 731.15l-.62.3-1.7.64-1.5.44-1.32.3-1.2.17-1.1.1h-1.03l-.97-.06-.93-.13-.9-.17-.87-.26-.87-.3-.87-.4-.88-.47-.9-.56-.92-.7-.97-.82-1.04-1.02-1.12-1.27-1.23-1.63-1.4-2.14-1.66-2.98-2.07-4.47-3.1-8.17-9.37-28.17" stroke="#19967d" stroke-width="3" fill="none"/><path d="M623.64 731.87l-1.44.66-1.26-2.72 1.36-.62z" fill="#19967d"/><path d="M577.23 664.76l9.6 11.53-8.62 3.43z" stroke="#19967d" stroke-width="3" fill="#19967d"/><path d="M449.43 754.4l-1.06-5.83-3.8-27.22-2.42-24.84-1.18-21.38-.24-18.02.43-15.1.9-12.7 1.2-10.75 1.42-9.15 1.56-7.85 1.65-6.8 1.7-5.92 1.73-5.2 1.75-4.6 1.76-4.1 1.75-3.64 1.74-3.3 1.74-2.96 1.74-2.7 1.73-2.44 1.73-2.24 1.4-1.66 1.75-1.96 1.85-1.9 1.93-1.8 2.04-1.75 2.14-1.7 2.26-1.65 2.4-1.6 2.56-1.54 2.73-1.5 2.94-1.46 3.18-1.4 3.46-1.38 3.8-1.32 4.18-1.26 4.66-1.2 5.24-1.1 6-1.02 6.96-.88 8.3-.7 10.25-.4h13.52l21.36.94 56.92 3.82" stroke="#c92d39" stroke-width="3" fill="none"/><path d="M452.25 769.92l-7.1-13.2 9.1-1.66zM652.84 534.04l-14.48 3.9.47-9.25z" stroke="#c92d39" stroke-width="3" fill="#c92d39"/><path d="M627.74 605.63l1.07-.5 3.2-1.85 3.44-2.38 4.1-3.37 6.32-6.14 9.4-9.7" stroke="#c92d39" stroke-width="3" fill="none"/><path d="M612.52 609l12.93-7.6 2 9.04zM666.4 570.56l-6.82 13.36-6.56-6.55z" stroke="#c92d39" stroke-width="3" fill="#c92d39"/><path d="M1018.5 518.78l-1.74.04-2.82.17-2.47.25-2.2.32-1.96.38-1.77.42-1.6.45-1.5.48-1.36.5-1.26.53-1.16.56-1.1.56-1.04.6-.98.62-.93.64-.9.67-.83.7-.8.72-.8.76-.74.8-.72.84-.7.9-.68.93-.66 1-.65 1.07-.44.8c-.2-.08-.38-.15-.6-.22-2.63-.8-5.42.7-6.22 3.34-.8 2.65.7 5.44 3.33 6.24l-.16.65-.5 2.4-.47 2.8-.43 3.4-.35 4.23-.23 5.68.02 8.9 1.56 51.5-.37 9.23-.64 7.58-.83 6.55-1 5.83-1.1 5.3-1.25 4.85-1.37 4.5-1.47 4.24-1.58 4-1.7 3.8-1.8 3.62-1.9 3.5-.93 1.56-2.17 3.42-2.44 3.53-2.76 3.64-3.1 3.76-3.5 3.9-3.94 4.02-4.4 4.15-4.95 4.28-5.5 4.4-6.14 4.46-6.8 4.52-7.44 4.53-8.13 4.5-8.76 4.35-9.3 4.16-9.76 3.9-10.06 3.5-10.2 3.1-10.16 2.63-9.96 2.14-9.62 1.64-9.17 1.2-8.63.73-8.1.35h-7.5l-6.93-.26-6.4-.53-5.9-.74-5.4-.9-4.98-1.06-4.58-1.17-4.23-1.26-3.9-1.35-3.6-1.42-3.35-1.48-3.1-1.54-.2-.12" stroke="#19967d" stroke-width="3" fill="none"/><path d="M1023 518.75h-3v1h3.02v.44l-4.53.08-.07-3 4.54-.1z" fill="#19967d"/><path d="M728.86 747.8l14.28 4.57-5.42 7.52z" stroke="#19967d" stroke-width="3" fill="#19967d"/><defs><path fill="#333" d="M178-136c88 48 22 151-73 140C49-3 12-15 4-64l51-9c1 50 111 53 115 3-16-63-132-20-133-112 0-93 190-91 199-10l-50 12c-4-41-93-50-97-4 7 38 59 32 89 48" id="Z"/><path fill="#333" d="M100 10C77 47 50 87-15 72l7-35c37 9 51-18 65-41L20-190h51L89-44l73-146h53" id="aa"/><path fill="#333" d="M144-137c-1-29-70-35-71-2 16 41 103 10 103 80C176 9 79 16 32-9 18-17 9-31 4-48l44-6c3 32 80 36 82 1-15-42-103-11-103-82 0-77 157-79 161-8" id="ab"/><path fill="#333" d="M72-63c-8 23 5 39 32 30L98-1C54 14 12-6 23-64l18-93H15l7-33h28l24-45h31l-8 45h35l-6 33H90" id="ac"/><path fill="#333" d="M114-194c63-2 87 48 72 110H63c-3 28 1 55 31 54 21-1 32-13 37-29l44 13C160-14 137 4 91 4 41 4 11-22 11-73c0-71 33-119 103-121zm30 77c14-47-50-61-67-22-3 6-6 13-8 22h75" id="ad"/><path fill="#333" d="M255-194c90 0 29 129 24 194h-49l25-136c-7-39-53-14-60 9-12 38-18 85-28 127h-49l25-136c2-29-39-23-50-7C69-108 68-47 56 0H6l36-190h48c-1 10-6 24-4 32 12-20 27-36 57-36s46 15 50 41c14-21 29-41 62-41" id="ae"/><g id="a"><use transform="matrix(0.06172839506172839,0,0,0.06172839506172839,0,0)" xlink:href="#Z"/><use transform="matrix(0.06172839506172839,0,0,0.06172839506172839,14.814814814814813,0)" xlink:href="#aa"/><use transform="matrix(0.06172839506172839,0,0,0.06172839506172839,27.160493827160494,0)" xlink:href="#ab"/><use transform="matrix(0.06172839506172839,0,0,0.06172839506172839,39.50617283950617,0)" xlink:href="#ac"/><use transform="matrix(0.06172839506172839,0,0,0.06172839506172839,46.85185185185185,0)" xlink:href="#ad"/><use transform="matrix(0.06172839506172839,0,0,0.06172839506172839,59.197530864197525,0)" xlink:href="#ae"/></g><path fill="#333" d="M187 0l-14-72H61L19 0h-37l149-248h38L221 0h-34zm-19-99l-22-123L76-99h92" id="af"/><path fill="#333" d="M44-68c0 29 11 47 38 47 30 0 42-19 51-41l28 9C148-21 126 4 82 4 31 4 10-29 12-85c3-77 74-140 146-93 12 8 15 23 18 40l-31 5c-1-22-13-36-36-36-52 0-65 49-65 101" id="ag"/><path fill="#333" d="M51-54c-9 22 5 41 31 30L79-1C43 14 10-4 19-52l22-115H19l5-23h22l19-43h21l-9 43h35l-4 23H73" id="ah"/><path fill="#333" d="M30-147c31-64 166-65 159 27C183-49 158 1 86 4 9 8 1-88 30-147zM88-20c53 0 68-48 68-100 0-31-11-51-44-50-52 1-68 46-68 97 0 32 13 53 44 53" id="ai"/><path fill="#333" d="M66-151c12-25 30-51 66-40l-6 26C45-176 58-65 38 0H6l36-190h30" id="aj"/><g id="b"><use transform="matrix(0.04938271604938272,0,0,0.04938271604938272,0,0)" xlink:href="#af"/><use transform="matrix(0.04938271604938272,0,0,0.04938271604938272,11.851851851851853,0)" xlink:href="#ag"/><use transform="matrix(0.04938271604938272,0,0,0.04938271604938272,20.74074074074074,0)" xlink:href="#ah"/><use transform="matrix(0.04938271604938272,0,0,0.04938271604938272,25.679012345679016,0)" xlink:href="#ai"/><use transform="matrix(0.04938271604938272,0,0,0.04938271604938272,35.55555555555556,0)" xlink:href="#aj"/></g><path fill="#fff" d="M161-211c-63 0-91 46-91 110 0 39 17 65 58 64 38-1 60-20 74-45l40 20C220-23 184 0 125 4 9 13-10-144 57-208c33-50 166-62 196-1 4 8 9 18 11 27l-48 12c-6-24-25-41-55-41" id="ak"/><path fill="#fff" d="M6 0l48-248h52L66-40h133l-8 40H6" id="al"/><path fill="#fff" d="M183 0l-10-63H79L44 0H-7l138-248h61L234 0h-51zm-14-102l-15-108c-16 38-36 73-55 108h70" id="am"/><path fill="#fff" d="M178-136c88 48 22 151-73 140C49-3 12-15 4-64l51-9c1 50 111 53 115 3-16-63-132-20-133-112 0-93 190-91 199-10l-50 12c-4-41-93-50-97-4 7 38 59 32 89 48" id="an"/><path fill="#fff" d="M6 0l48-248h52L58 0H6" id="ao"/><path fill="#fff" d="M98-208l-15 77h118l-8 40H76L58 0H6l48-248h174l-8 40H98" id="ap"/><path fill="#fff" d="M8 0l10-54h51L59 0H8" id="aq"/><g id="c"><use transform="matrix(0.06172839506172839,0,0,0.06172839506172839,0,0)" xlink:href="#ak"/><use transform="matrix(0.06172839506172839,0,0,0.06172839506172839,15.987654320987653,0)" xlink:href="#al"/><use transform="matrix(0.06172839506172839,0,0,0.06172839506172839,29.50617283950617,0)" xlink:href="#am"/><use transform="matrix(0.06172839506172839,0,0,0.06172839506172839,45.49382716049382,0)" xlink:href="#an"/><use transform="matrix(0.06172839506172839,0,0,0.06172839506172839,60.30864197530863,0)" xlink:href="#an"/><use transform="matrix(0.06172839506172839,0,0,0.06172839506172839,75.12345679012344,0)" xlink:href="#ao"/><use transform="matrix(0.06172839506172839,0,0,0.06172839506172839,81.29629629629628,0)" xlink:href="#ap"/><use transform="matrix(0.06172839506172839,0,0,0.06172839506172839,92.34567901234566,0)" xlink:href="#aq"/></g><g id="d"><use transform="matrix(0.06172839506172839,0,0,0.06172839506172839,0,0)" xlink:href="#am"/><use transform="matrix(0.06172839506172839,0,0,0.06172839506172839,15.987654320987653,0)" xlink:href="#aq"/><use transform="matrix(0.06172839506172839,0,0,0.06172839506172839,22.160493827160494,0)" xlink:href="#ao"/><use transform="matrix(0.06172839506172839,0,0,0.06172839506172839,28.333333333333332,0)" xlink:href="#aq"/></g><path fill="#fff" d="M250-142C247-53 197 0 108 0H6l48-248c105-5 200 3 196 106zm-49 2c1-57-42-72-103-68L66-40c84 6 135-22 135-100" id="ar"/><path fill="#fff" d="M168 0l21-106H79L58 0H6l48-248h52l-19 99h110l19-99h50L218 0h-50" id="as"/><path fill="#fff" d="M240-76C239 26 104-5 6 0l48-248c79 4 193-21 193 58 0 38-25 53-57 60 29 5 49 21 50 54zm-45-106c0-40-58-24-96-27l-12 61c45-3 108 12 108-34zm-7 105c0-44-65-31-109-33L66-38c51-3 122 14 122-39" id="at"/><path fill="#fff" d="M18-101c0-91 52-150 145-150 68 0 111 34 111 101C274-54 221 4 128 4 59 4 18-33 18-101zm202-32c4-46-15-77-59-77-65 0-88 46-91 108-2 41 22 65 60 65 60 0 84-40 90-96" id="au"/><path fill="#fff" d="M258-177c0 46-32 67-71 75L235 0h-57l-41-94H76L58 0H6l48-248c89 2 204-19 204 71zm-53 3c0-46-63-30-107-33l-14 73c51-2 120 13 121-40" id="av"/><g id="e"><use transform="matrix(0.06172839506172839,0,0,0.06172839506172839,0,0)" xlink:href="#ar"/><use transform="matrix(0.06172839506172839,0,0,0.06172839506172839,15.987654320987653,0)" xlink:href="#am"/><use transform="matrix(0.06172839506172839,0,0,0.06172839506172839,31.975308641975307,0)" xlink:href="#an"/><use transform="matrix(0.06172839506172839,0,0,0.06172839506172839,46.79012345679012,0)" xlink:href="#as"/><use transform="matrix(0.06172839506172839,0,0,0.06172839506172839,62.77777777777777,0)" xlink:href="#at"/><use transform="matrix(0.06172839506172839,0,0,0.06172839506172839,78.76543209876543,0)" xlink:href="#au"/><use transform="matrix(0.06172839506172839,0,0,0.06172839506172839,96.04938271604938,0)" xlink:href="#am"/><use transform="matrix(0.06172839506172839,0,0,0.06172839506172839,112.03703703703704,0)" xlink:href="#av"/><use transform="matrix(0.06172839506172839,0,0,0.06172839506172839,128.02469135802468,0)" xlink:href="#ar"/></g><path fill="#333" d="M153-248C145-148 188 4 80 4 36 3 13-21 6-62l32-5c4 25 16 42 43 43 27 0 39-20 39-49v-147H72v-28h81" id="aw"/><path fill="#333" d="M140-251c81 0 123 46 123 126C263-46 219 4 140 4 59 4 17-45 17-125s42-126 123-126zm0 227c63 0 89-41 89-101s-29-99-89-99c-61 0-89 39-89 99S79-25 140-24" id="ax"/><path fill="#333" d="M160-131c35 5 61 23 61 61C221 17 115-2 30 0v-248c76 3 177-17 177 60 0 33-19 50-47 57zm-97-11c50-1 110 9 110-42 0-47-63-36-110-37v79zm0 115c55-2 124 14 124-45 0-56-70-42-124-44v89" id="ay"/><path fill="#333" d="M185-189c-5-48-123-54-124 2 14 75 158 14 163 119 3 78-121 87-175 55-17-10-28-26-33-46l33-7c5 56 141 63 141-1 0-78-155-14-162-118-5-82 145-84 179-34 5 7 8 16 11 25" id="az"/><g id="f"><use transform="matrix(0.05,0,0,0.05,0,0)" xlink:href="#aw"/><use transform="matrix(0.05,0,0,0.05,9,0)" xlink:href="#ax"/><use transform="matrix(0.05,0,0,0.05,23,0)" xlink:href="#ay"/><use transform="matrix(0.05,0,0,0.05,35,0)" xlink:href="#az"/></g><path fill="#333" d="M30 0v-248h33v221h125V0H30" id="aA"/><path fill="#333" d="M30 0v-248h187v28H63v79h144v27H63v87h162V0H30" id="aB"/><path fill="#333" d="M205 0l-28-72H64L36 0H1l101-248h38L239 0h-34zm-38-99l-47-123c-12 45-31 82-46 123h93" id="aC"/><path fill="#333" d="M233-177c-1 41-23 64-60 70L243 0h-38l-65-103H63V0H30v-248c88 3 205-21 203 71zM63-129c60-2 137 13 137-47 0-61-80-42-137-45v92" id="aD"/><path fill="#333" d="M190 0L58-211 59 0H30v-248h39L202-35l-2-213h31V0h-41" id="aE"/><path fill="#333" d="M33 0v-248h34V0H33" id="aF"/><path fill="#333" d="M143 4C61 4 22-44 18-125c-5-107 100-154 193-111 17 8 29 25 37 43l-32 9c-13-25-37-40-76-40-61 0-88 39-88 99 0 61 29 100 91 101 35 0 62-11 79-27v-45h-74v-28h105v86C228-13 192 4 143 4" id="aG"/><g id="g"><use transform="matrix(0.05,0,0,0.05,0,0)" xlink:href="#aA"/><use transform="matrix(0.05,0,0,0.05,10,0)" xlink:href="#aB"/><use transform="matrix(0.05,0,0,0.05,22,0)" xlink:href="#aC"/><use transform="matrix(0.05,0,0,0.05,34,0)" xlink:href="#aD"/><use transform="matrix(0.05,0,0,0.05,46.95,0)" xlink:href="#aE"/><use transform="matrix(0.05,0,0,0.05,59.900000000000006,0)" xlink:href="#aF"/><use transform="matrix(0.05,0,0,0.05,64.9,0)" xlink:href="#aE"/><use transform="matrix(0.05,0,0,0.05,77.85000000000001,0)" xlink:href="#aG"/></g><path fill="#333" d="M212-179c-10-28-35-45-73-45-59 0-87 40-87 99 0 60 29 101 89 101 43 0 62-24 78-52l27 14C228-24 195 4 139 4 59 4 22-46 18-125c-6-104 99-153 187-111 19 9 31 26 39 46" id="aH"/><path fill="#333" d="M127-220V0H93v-220H8v-28h204v28h-85" id="aI"/><g id="h"><use transform="matrix(0.05,0,0,0.05,0,0)" xlink:href="#ax"/><use transform="matrix(0.05,0,0,0.05,14,0)" xlink:href="#ay"/><use transform="matrix(0.05,0,0,0.05,26,0)" xlink:href="#aw"/><use transform="matrix(0.05,0,0,0.05,35,0)" xlink:href="#aB"/><use transform="matrix(0.05,0,0,0.05,47,0)" xlink:href="#aH"/><use transform="matrix(0.05,0,0,0.05,59.95,0)" xlink:href="#aI"/><use transform="matrix(0.05,0,0,0.05,70.9,0)" xlink:href="#az"/></g><path fill="#333" d="M194 0L95-120 63-95V0H30v-248h33v124l119-124h40L117-140 236 0h-42" id="aJ"/><g id="i"><use transform="matrix(0.05,0,0,0.05,0,0)" xlink:href="#az"/><use transform="matrix(0.05,0,0,0.05,12,0)" xlink:href="#aJ"/><use transform="matrix(0.05,0,0,0.05,24,0)" xlink:href="#aF"/><use transform="matrix(0.05,0,0,0.05,29,0)" xlink:href="#aA"/><use transform="matrix(0.05,0,0,0.05,39,0)" xlink:href="#aA"/><use transform="matrix(0.05,0,0,0.05,49,0)" xlink:href="#az"/></g><path fill="#333" d="M140-251c80 0 125 45 125 126S219 4 139 4C58 4 15-44 15-125s44-126 125-126zm-1 214c52 0 73-35 73-88 0-50-21-86-72-86-52 0-73 35-73 86s22 88 72 88" id="aK"/><path fill="#333" d="M240-174c0 40-23 61-54 70L253 0h-59l-57-94H76V0H24v-248c93 4 217-23 216 74zM76-134c48-2 112 12 112-38 0-48-66-32-112-35v73" id="aL"/><path fill="#333" d="M199 0l-22-63H83L61 0H9l90-248h61L250 0h-51zm-33-102l-36-108c-10 38-24 72-36 108h72" id="aM"/><path fill="#333" d="M175 0L67-191c6 58 2 128 3 191H24v-248h59L193-55c-6-58-2-129-3-193h46V0h-61" id="aN"/><path fill="#333" d="M67-125c0 54 23 88 75 88 28 0 53-7 68-21v-34h-60v-39h108v91C232-14 192 4 140 4 58 4 20-42 15-125 8-236 126-280 215-234c19 10 29 26 37 47l-47 15c-11-23-29-39-63-39-53 1-75 33-75 86" id="aO"/><path fill="#333" d="M24 0v-248h195v40H76v63h132v40H76v65h150V0H24" id="aP"/><g id="j"><use transform="matrix(0.06234567901234567,0,0,0.06234567901234567,0,0)" xlink:href="#aK"/><use transform="matrix(0.06234567901234567,0,0,0.06234567901234567,17.456790123456788,0)" xlink:href="#aL"/><use transform="matrix(0.06234567901234567,0,0,0.06234567901234567,33.60432098765432,0)" xlink:href="#aM"/><use transform="matrix(0.06234567901234567,0,0,0.06234567901234567,49.751851851851846,0)" xlink:href="#aN"/><use transform="matrix(0.06234567901234567,0,0,0.06234567901234567,65.89938271604937,0)" xlink:href="#aO"/><use transform="matrix(0.06234567901234567,0,0,0.06234567901234567,83.35617283950616,0)" xlink:href="#aP"/></g><path fill="#333" d="M24 0v-248h52v208h133V0H24" id="aQ"/><path fill="#333" d="M24 0v-248h52V0H24" id="aR"/><g id="k"><use transform="matrix(0.06234567901234567,0,0,0.06234567901234567,0,0)" xlink:href="#aQ"/><use transform="matrix(0.06234567901234567,0,0,0.06234567901234567,13.653703703703702,0)" xlink:href="#aP"/><use transform="matrix(0.06234567901234567,0,0,0.06234567901234567,28.61666666666666,0)" xlink:href="#aM"/><use transform="matrix(0.06234567901234567,0,0,0.06234567901234567,44.76419753086419,0)" xlink:href="#aL"/><use transform="matrix(0.06234567901234567,0,0,0.06234567901234567,60.911728395061715,0)" xlink:href="#aN"/><use transform="matrix(0.06234567901234567,0,0,0.06234567901234567,77.05925925925925,0)" xlink:href="#aR"/><use transform="matrix(0.06234567901234567,0,0,0.06234567901234567,83.29382716049382,0)" xlink:href="#aN"/><use transform="matrix(0.06234567901234567,0,0,0.06234567901234567,99.44135802469134,0)" xlink:href="#aO"/></g><path fill="#333" d="M232-93c-1 65-40 97-104 97C67 4 28-28 28-90v-158h33c8 89-33 224 67 224 102 0 64-133 71-224h33v155" id="aS"/><g id="l"><use transform="matrix(0.05,0,0,0.05,0,0)" xlink:href="#aS"/><use transform="matrix(0.05,0,0,0.05,12.950000000000001,0)" xlink:href="#az"/><use transform="matrix(0.05,0,0,0.05,24.950000000000003,0)" xlink:href="#aB"/></g><g id="m"><use transform="matrix(0.05,0,0,0.05,0,0)" xlink:href="#aH"/><use transform="matrix(0.05,0,0,0.05,12.950000000000001,0)" xlink:href="#aC"/><use transform="matrix(0.05,0,0,0.05,24.950000000000003,0)" xlink:href="#az"/><use transform="matrix(0.05,0,0,0.05,36.95,0)" xlink:href="#aB"/></g><path fill="#333" d="M101-251c82-7 93 87 43 132L82-64C71-53 59-42 53-27h129V0H18c2-99 128-94 128-182 0-28-16-43-45-43s-46 15-49 41l-32-3c6-41 34-60 81-64" id="aT"/><use transform="matrix(0.05,0,0,0.05,0,0)" xlink:href="#aT" id="n"/><path fill="#333" d="M30-248c87 1 191-15 191 75 0 78-77 80-158 76V0H30v-248zm33 125c57 0 124 11 124-50 0-59-68-47-124-48v98" id="aU"/><g id="o"><use transform="matrix(0.04999999999999997,0,0,0.04999999999999997,0,0)" xlink:href="#aU"/><use transform="matrix(0.04999999999999997,0,0,0.04999999999999997,11.999999999999993,0)" xlink:href="#aD"/><use transform="matrix(0.04999999999999997,0,0,0.04999999999999997,24.949999999999985,0)" xlink:href="#ax"/><use transform="matrix(0.04999999999999997,0,0,0.04999999999999997,38.949999999999974,0)" xlink:href="#aU"/><use transform="matrix(0.04999999999999997,0,0,0.04999999999999997,50.94999999999997,0)" xlink:href="#ax"/><use transform="matrix(0.04999999999999997,0,0,0.04999999999999997,64.94999999999996,0)" xlink:href="#az"/><use transform="matrix(0.04999999999999997,0,0,0.04999999999999997,76.94999999999996,0)" xlink:href="#aB"/><use transform="matrix(0.04999999999999997,0,0,0.04999999999999997,88.94999999999996,0)" xlink:href="#aD"/></g><path fill="#333" d="M195 0l-74-108L45 0H8l94-129-87-119h37l69 98 67-98h37l-84 118L233 0h-38" id="aV"/><g id="p"><use transform="matrix(0.04999999999999997,0,0,0.04999999999999997,0,0)" xlink:href="#aC"/><use transform="matrix(0.04999999999999997,0,0,0.04999999999999997,11.999999999999993,0)" xlink:href="#aS"/><use transform="matrix(0.04999999999999997,0,0,0.04999999999999997,24.949999999999985,0)" xlink:href="#aV"/></g><g id="q"><use transform="matrix(0.04999999999999997,0,0,0.04999999999999997,0,0)" xlink:href="#aS"/><use transform="matrix(0.04999999999999997,0,0,0.04999999999999997,12.949999999999992,0)" xlink:href="#aI"/><use transform="matrix(0.04999999999999997,0,0,0.04999999999999997,23.899999999999984,0)" xlink:href="#aF"/><use transform="matrix(0.04999999999999997,0,0,0.04999999999999997,28.89999999999998,0)" xlink:href="#aA"/><use transform="matrix(0.04999999999999997,0,0,0.04999999999999997,38.89999999999998,0)" xlink:href="#aF"/><use transform="matrix(0.04999999999999997,0,0,0.04999999999999997,43.89999999999998,0)" xlink:href="#az"/><use transform="matrix(0.04999999999999997,0,0,0.04999999999999997,55.89999999999998,0)" xlink:href="#aC"/><use transform="matrix(0.04999999999999997,0,0,0.04999999999999997,66.54999999999995,0)" xlink:href="#aI"/><use transform="matrix(0.04999999999999997,0,0,0.04999999999999997,77.49999999999994,0)" xlink:href="#aB"/><use transform="matrix(0.04999999999999997,0,0,0.04999999999999997,89.49999999999994,0)" xlink:href="#aS"/><use transform="matrix(0.04999999999999997,0,0,0.04999999999999997,102.44999999999993,0)" xlink:href="#aD"/><use transform="matrix(0.04999999999999997,0,0,0.04999999999999997,115.39999999999992,0)" xlink:href="#az"/></g><path fill="#333" d="M30-248c118-7 216 8 213 122C240-48 200 0 122 0H30v-248zM63-27c89 8 146-16 146-99s-60-101-146-95v194" id="aW"/><g id="r"><use transform="matrix(0.04999999999999997,0,0,0.04999999999999997,0,0)" xlink:href="#aW"/><use transform="matrix(0.04999999999999997,0,0,0.04999999999999997,12.949999999999992,0)" xlink:href="#aB"/><use transform="matrix(0.04999999999999997,0,0,0.04999999999999997,24.949999999999985,0)" xlink:href="#az"/></g><path fill="#333" d="M63-220v92h138v28H63V0H30v-248h175v28H63" id="aX"/><path fill="#333" d="M240 0l2-218c-23 76-54 145-80 218h-23L58-218 59 0H30v-248h44l77 211c21-75 51-140 76-211h43V0h-30" id="aY"/><g id="s"><use transform="matrix(0.04999999999999997,0,0,0.04999999999999997,0,0)" xlink:href="#aX"/><use transform="matrix(0.04999999999999997,0,0,0.04999999999999997,10.949999999999992,0)" xlink:href="#ax"/><use transform="matrix(0.04999999999999997,0,0,0.04999999999999997,24.94999999999998,0)" xlink:href="#aD"/><use transform="matrix(0.04999999999999997,0,0,0.04999999999999997,37.89999999999998,0)" xlink:href="#aY"/><use transform="matrix(0.04999999999999997,0,0,0.04999999999999997,52.849999999999966,0)" xlink:href="#aC"/><use transform="matrix(0.04999999999999997,0,0,0.04999999999999997,63.49999999999996,0)" xlink:href="#aI"/><use transform="matrix(0.04999999999999997,0,0,0.04999999999999997,74.44999999999995,0)" xlink:href="#aF"/><use transform="matrix(0.04999999999999997,0,0,0.04999999999999997,79.44999999999995,0)" xlink:href="#ax"/><use transform="matrix(0.04999999999999997,0,0,0.04999999999999997,93.44999999999993,0)" xlink:href="#aE"/><use transform="matrix(0.04999999999999997,0,0,0.04999999999999997,106.3999999999999,0)" xlink:href="#az"/></g><path fill="#333" d="M24-248c93 1 206-16 204 79-1 75-69 88-152 82V0H24v-248zm52 121c47 0 100 7 100-41 0-47-54-39-100-39v80" id="aZ"/><path fill="#333" d="M136-208V0H84v-208H4v-40h212v40h-80" id="ba"/><path fill="#333" d="M169-182c-1-43-94-46-97-3 18 66 151 10 154 114 3 95-165 93-204 36-6-8-10-19-12-30l50-8c3 46 112 56 116 5-17-69-150-10-154-114-4-87 153-88 188-35 5 8 8 18 10 28" id="bb"/><g id="t"><use transform="matrix(0.04999999999999997,0,0,0.04999999999999997,0,0)" xlink:href="#aZ"/><use transform="matrix(0.04999999999999997,0,0,0.04999999999999997,11.999999999999993,0)" xlink:href="#aP"/><use transform="matrix(0.04999999999999997,0,0,0.04999999999999997,23.999999999999986,0)" xlink:href="#aL"/><use transform="matrix(0.04999999999999997,0,0,0.04999999999999997,36.949999999999974,0)" xlink:href="#ba"/><use transform="matrix(0.04999999999999997,0,0,0.04999999999999997,47.89999999999996,0)" xlink:href="#aR"/><use transform="matrix(0.04999999999999997,0,0,0.04999999999999997,52.89999999999996,0)" xlink:href="#aN"/><use transform="matrix(0.04999999999999997,0,0,0.04999999999999997,65.84999999999995,0)" xlink:href="#aP"/><use transform="matrix(0.04999999999999997,0,0,0.04999999999999997,77.84999999999994,0)" xlink:href="#aN"/><use transform="matrix(0.04999999999999997,0,0,0.04999999999999997,90.79999999999993,0)" xlink:href="#ba"/><use transform="matrix(0.04999999999999997,0,0,0.04999999999999997,101.74999999999991,0)" xlink:href="#aP"/><use transform="matrix(0.04999999999999997,0,0,0.04999999999999997,113.7499999999999,0)" xlink:href="#bb"/></g><g id="u"><use transform="matrix(0.04999999999999997,0,0,0.04999999999999997,0,0)" xlink:href="#aB"/><use transform="matrix(0.04999999999999997,0,0,0.04999999999999997,11.999999999999993,0)" xlink:href="#aE"/></g><g id="v"><use transform="matrix(0.04999999999999997,0,0,0.04999999999999997,0,0)" xlink:href="#aD"/><use transform="matrix(0.04999999999999997,0,0,0.04999999999999997,12.949999999999992,0)" xlink:href="#aC"/><use transform="matrix(0.04999999999999997,0,0,0.04999999999999997,24.949999999999985,0)" xlink:href="#aU"/><use transform="matrix(0.04999999999999997,0,0,0.04999999999999997,36.949999999999974,0)" xlink:href="#aU"/><use transform="matrix(0.04999999999999997,0,0,0.04999999999999997,48.94999999999997,0)" xlink:href="#ax"/><use transform="matrix(0.04999999999999997,0,0,0.04999999999999997,62.94999999999996,0)" xlink:href="#aD"/><use transform="matrix(0.04999999999999997,0,0,0.04999999999999997,75.54999999999995,0)" xlink:href="#aI"/></g><path fill="#333" d="M137 0h-34L2-248h35l83 218 83-218h36" id="bc"/><g id="w"><use transform="matrix(0.04999999999999997,0,0,0.04999999999999997,0,0)" xlink:href="#aC"/><use transform="matrix(0.04999999999999997,0,0,0.04999999999999997,10.649999999999993,0)" xlink:href="#bc"/><use transform="matrix(0.04999999999999997,0,0,0.04999999999999997,22.649999999999984,0)" xlink:href="#aB"/><use transform="matrix(0.04999999999999997,0,0,0.04999999999999997,34.64999999999998,0)" xlink:href="#aH"/></g><g id="x"><use transform="matrix(0.04999999999999997,0,0,0.04999999999999997,0,0)" xlink:href="#aA"/><use transform="matrix(0.04999999999999997,0,0,0.04999999999999997,9.999999999999993,0)" xlink:href="#aB"/><use transform="matrix(0.04999999999999997,0,0,0.04999999999999997,21.999999999999986,0)" xlink:href="#aS"/><use transform="matrix(0.04999999999999997,0,0,0.04999999999999997,34.949999999999974,0)" xlink:href="#aD"/></g><path fill="#333" d="M230 0l2-204L168 0h-37L68-204 70 0H24v-248h70l56 185 57-185h69V0h-46" id="bd"/><g id="y"><use transform="matrix(0.04999999999999997,0,0,0.04999999999999997,0,0)" xlink:href="#bd"/><use transform="matrix(0.04999999999999997,0,0,0.04999999999999997,14.94999999999999,0)" xlink:href="#aP"/><use transform="matrix(0.04999999999999997,0,0,0.04999999999999997,26.94999999999998,0)" xlink:href="#ba"/><use transform="matrix(0.04999999999999997,0,0,0.04999999999999997,37.89999999999998,0)" xlink:href="#aR"/><use transform="matrix(0.04999999999999997,0,0,0.04999999999999997,42.89999999999998,0)" xlink:href="#aP"/><use transform="matrix(0.04999999999999997,0,0,0.04999999999999997,54.89999999999996,0)" xlink:href="#aL"/></g><g id="z"><use transform="matrix(0.04999999999999997,0,0,0.04999999999999997,0,0)" xlink:href="#aB"/><use transform="matrix(0.04999999999999997,0,0,0.04999999999999997,11.999999999999993,0)" xlink:href="#aI"/></g><g id="A"><use transform="matrix(0.04999999999999997,0,0,0.04999999999999997,0,0)" xlink:href="#aA"/><use transform="matrix(0.04999999999999997,0,0,0.04999999999999997,9.999999999999993,0)" xlink:href="#aB"/><use transform="matrix(0.04999999999999997,0,0,0.04999999999999997,21.999999999999986,0)" xlink:href="#aS"/><use transform="matrix(0.04999999999999997,0,0,0.04999999999999997,34.949999999999974,0)" xlink:href="#aD"/><use transform="matrix(0.04999999999999997,0,0,0.04999999999999997,47.89999999999996,0)" xlink:href="#az"/></g><path fill="#333" d="M197 0v-115H63V0H30v-248h33v105h134v-105h34V0h-34" id="be"/><g id="B"><use transform="matrix(0.04999999999999997,0,0,0.04999999999999997,0,0)" xlink:href="#az"/><use transform="matrix(0.04999999999999997,0,0,0.04999999999999997,11.999999999999993,0)" xlink:href="#ax"/><use transform="matrix(0.04999999999999997,0,0,0.04999999999999997,25.999999999999982,0)" xlink:href="#aS"/><use transform="matrix(0.04999999999999997,0,0,0.04999999999999997,38.949999999999974,0)" xlink:href="#be"/><use transform="matrix(0.04999999999999997,0,0,0.04999999999999997,51.89999999999997,0)" xlink:href="#aC"/><use transform="matrix(0.04999999999999997,0,0,0.04999999999999997,63.899999999999956,0)" xlink:href="#aF"/><use transform="matrix(0.04999999999999997,0,0,0.04999999999999997,68.89999999999995,0)" xlink:href="#aI"/><use transform="matrix(0.04999999999999997,0,0,0.04999999999999997,79.84999999999994,0)" xlink:href="#az"/></g><path fill="#333" d="M0 4l72-265h28L28 4H0" id="bf"/><use transform="matrix(0.04999999999999997,0,0,0.04999999999999997,0,0)" xlink:href="#bf" id="C"/><g id="D"><use transform="matrix(0.04999999999999997,0,0,0.04999999999999997,0,0)" xlink:href="#ay"/><use transform="matrix(0.04999999999999997,0,0,0.04999999999999997,11.999999999999993,0)" xlink:href="#aB"/><use transform="matrix(0.04999999999999997,0,0,0.04999999999999997,23.999999999999986,0)" xlink:href="#az"/><use transform="matrix(0.04999999999999997,0,0,0.04999999999999997,35.99999999999998,0)" xlink:href="#ax"/><use transform="matrix(0.04999999999999997,0,0,0.04999999999999997,49.99999999999997,0)" xlink:href="#aF"/><use transform="matrix(0.04999999999999997,0,0,0.04999999999999997,54.99999999999998,0)" xlink:href="#aE"/><use transform="matrix(0.04999999999999997,0,0,0.04999999999999997,67.94999999999996,0)" xlink:href="#az"/></g><path fill="#333" d="M24-248c120-7 223 5 221 122C244-46 201 0 124 0H24v-248zM76-40c74 7 117-18 117-86 0-67-45-88-117-82v168" id="bg"/><path fill="#333" d="M62-158H24l-5-90h48" id="bh"/><path fill="#333" d="M147 0H94L2-248h55l64 206c17-72 42-137 63-206h54" id="bi"/><path fill="#333" d="M238-95c0 69-44 99-111 99C63 4 22-25 22-93v-155h51v151c-1 38 19 59 55 60 90 1 49-130 58-211h52v153" id="bj"/><g id="E"><use transform="matrix(0.04999999999999997,0,0,0.04999999999999997,0,0)" xlink:href="#bg"/><use transform="matrix(0.04999999999999997,0,0,0.04999999999999997,12.949999999999992,0)" xlink:href="#bh"/><use transform="matrix(0.04999999999999997,0,0,0.04999999999999997,17.19999999999999,0)" xlink:href="#aP"/><use transform="matrix(0.04999999999999997,0,0,0.04999999999999997,29.19999999999998,0)" xlink:href="#bi"/><use transform="matrix(0.04999999999999997,0,0,0.04999999999999997,41.199999999999974,0)" xlink:href="#aK"/><use transform="matrix(0.04999999999999997,0,0,0.04999999999999997,55.19999999999997,0)" xlink:href="#aQ"/><use transform="matrix(0.04999999999999997,0,0,0.04999999999999997,66.14999999999996,0)" xlink:href="#bj"/><use transform="matrix(0.04999999999999997,0,0,0.04999999999999997,79.09999999999995,0)" xlink:href="#ba"/><use transform="matrix(0.04999999999999997,0,0,0.04999999999999997,90.04999999999994,0)" xlink:href="#aR"/><use transform="matrix(0.04999999999999997,0,0,0.04999999999999997,95.04999999999994,0)" xlink:href="#aK"/><use transform="matrix(0.04999999999999997,0,0,0.04999999999999997,109.04999999999993,0)" xlink:href="#aN"/></g><path fill="#333" d="M27 0v-27h64v-190l-56 39v-29l58-41h29v221h61V0H27" id="bk"/><use transform="matrix(0.05,0,0,0.05,0,0)" xlink:href="#bk" id="F"/><g id="G"><use transform="matrix(0.04999999999999997,0,0,0.04999999999999997,0,0)" xlink:href="#aU"/><use transform="matrix(0.04999999999999997,0,0,0.04999999999999997,11.999999999999993,0)" xlink:href="#aB"/><use transform="matrix(0.04999999999999997,0,0,0.04999999999999997,23.999999999999986,0)" xlink:href="#aD"/><use transform="matrix(0.04999999999999997,0,0,0.04999999999999997,36.949999999999974,0)" xlink:href="#aY"/><use transform="matrix(0.04999999999999997,0,0,0.04999999999999997,51.89999999999997,0)" xlink:href="#aB"/><use transform="matrix(0.04999999999999997,0,0,0.04999999999999997,63.899999999999956,0)" xlink:href="#aI"/><use transform="matrix(0.04999999999999997,0,0,0.04999999999999997,74.84999999999995,0)" xlink:href="#aI"/><use transform="matrix(0.04999999999999997,0,0,0.04999999999999997,85.79999999999994,0)" xlink:href="#aD"/><use transform="matrix(0.04999999999999997,0,0,0.04999999999999997,98.74999999999993,0)" xlink:href="#aB"/></g><path fill="#333" d="M76-208v77h127v40H76V0H24v-248h183v40H76" id="bl"/><g id="H"><use transform="matrix(0.04999999999999997,0,0,0.04999999999999997,0,0)" xlink:href="#bl"/><use transform="matrix(0.04999999999999997,0,0,0.04999999999999997,10.949999999999992,0)" xlink:href="#aK"/><use transform="matrix(0.04999999999999997,0,0,0.04999999999999997,24.94999999999998,0)" xlink:href="#bj"/><use transform="matrix(0.04999999999999997,0,0,0.04999999999999997,37.89999999999998,0)" xlink:href="#aL"/><use transform="matrix(0.04999999999999997,0,0,0.04999999999999997,50.849999999999966,0)" xlink:href="#aN"/><use transform="matrix(0.04999999999999997,0,0,0.04999999999999997,63.79999999999996,0)" xlink:href="#aR"/><use transform="matrix(0.04999999999999997,0,0,0.04999999999999997,68.79999999999995,0)" xlink:href="#bb"/><use transform="matrix(0.04999999999999997,0,0,0.04999999999999997,80.79999999999995,0)" xlink:href="#bb"/><use transform="matrix(0.04999999999999997,0,0,0.04999999999999997,92.79999999999995,0)" xlink:href="#aP"/><use transform="matrix(0.04999999999999997,0,0,0.04999999999999997,104.79999999999995,0)" xlink:href="#bj"/><use transform="matrix(0.04999999999999997,0,0,0.04999999999999997,117.74999999999994,0)" xlink:href="#aL"/><use transform="matrix(0.04999999999999997,0,0,0.04999999999999997,130.69999999999993,0)" xlink:href="#bb"/></g><g id="I"><use transform="matrix(0.04999999999999997,0,0,0.04999999999999997,0,0)" xlink:href="#aW"/><use transform="matrix(0.04999999999999997,0,0,0.04999999999999997,12.949999999999992,0)" xlink:href="#aB"/></g><g id="J"><use transform="matrix(0.04999999999999997,0,0,0.04999999999999997,0,0)" xlink:href="#az"/><use transform="matrix(0.04999999999999997,0,0,0.04999999999999997,11.999999999999993,0)" xlink:href="#aS"/><use transform="matrix(0.04999999999999997,0,0,0.04999999999999997,24.949999999999985,0)" xlink:href="#aF"/><use transform="matrix(0.04999999999999997,0,0,0.04999999999999997,29.94999999999998,0)" xlink:href="#bc"/><use transform="matrix(0.04999999999999997,0,0,0.04999999999999997,41.949999999999974,0)" xlink:href="#aD"/><use transform="matrix(0.04999999999999997,0,0,0.04999999999999997,54.89999999999996,0)" xlink:href="#aB"/></g><g id="K"><use transform="matrix(0.04999999999999997,0,0,0.04999999999999997,0,0)" xlink:href="#aA"/><use transform="matrix(0.04999999999999997,0,0,0.04999999999999997,9.999999999999993,0)" xlink:href="#aB"/><use transform="matrix(0.04999999999999997,0,0,0.04999999999999997,21.999999999999986,0)" xlink:href="#aS"/><use transform="matrix(0.04999999999999997,0,0,0.04999999999999997,34.949999999999974,0)" xlink:href="#aD"/></g><g id="L"><use transform="matrix(0.04999999999999997,0,0,0.04999999999999997,0,0)" xlink:href="#aK"/><use transform="matrix(0.04999999999999997,0,0,0.04999999999999997,13.999999999999991,0)" xlink:href="#bl"/><use transform="matrix(0.04999999999999997,0,0,0.04999999999999997,24.94999999999998,0)" xlink:href="#bl"/><use transform="matrix(0.04999999999999997,0,0,0.04999999999999997,35.89999999999998,0)" xlink:href="#aL"/><use transform="matrix(0.04999999999999997,0,0,0.04999999999999997,48.849999999999966,0)" xlink:href="#aP"/></g><g id="M"><use transform="matrix(0.04999999999999997,0,0,0.04999999999999997,0,0)" xlink:href="#aB"/><use transform="matrix(0.04999999999999997,0,0,0.04999999999999997,11.999999999999993,0)" xlink:href="#aE"/></g><g id="N"><use transform="matrix(0.04999999999999997,0,0,0.04999999999999997,0,0)" xlink:href="#aX"/><use transform="matrix(0.04999999999999997,0,0,0.04999999999999997,10.949999999999992,0)" xlink:href="#aA"/><use transform="matrix(0.04999999999999997,0,0,0.04999999999999997,20.949999999999985,0)" xlink:href="#aS"/><use transform="matrix(0.04999999999999997,0,0,0.04999999999999997,33.89999999999998,0)" xlink:href="#aV"/></g><g id="O"><use transform="matrix(0.04999999999999997,0,0,0.04999999999999997,0,0)" xlink:href="#aI"/><use transform="matrix(0.04999999999999997,0,0,0.04999999999999997,10.949999999999992,0)" xlink:href="#aB"/><use transform="matrix(0.04999999999999997,0,0,0.04999999999999997,22.949999999999985,0)" xlink:href="#aE"/><use transform="matrix(0.04999999999999997,0,0,0.04999999999999997,35.89999999999998,0)" xlink:href="#aW"/><use transform="matrix(0.04999999999999997,0,0,0.04999999999999997,48.849999999999966,0)" xlink:href="#aS"/></g><path fill="#333" d="M115-194c53 0 69 39 70 98 0 66-23 100-70 100C84 3 66-7 56-30L54 0H23l1-261h32v101c10-23 28-34 59-34zm-8 174c40 0 45-34 45-75 0-40-5-75-45-74-42 0-51 32-51 76 0 43 10 73 51 73" id="bm"/><g id="P"><use transform="matrix(0.05,0,0,0.05,0,0)" xlink:href="#aT"/><use transform="matrix(0.05,0,0,0.05,10,0)" xlink:href="#bm"/></g><g id="Q"><use transform="matrix(0.04999999999999997,0,0,0.04999999999999997,0,0)" xlink:href="#aD"/><use transform="matrix(0.04999999999999997,0,0,0.04999999999999997,12.949999999999992,0)" xlink:href="#aB"/><use transform="matrix(0.04999999999999997,0,0,0.04999999999999997,24.949999999999985,0)" xlink:href="#aA"/><use transform="matrix(0.04999999999999997,0,0,0.04999999999999997,34.949999999999974,0)" xlink:href="#aF"/><use transform="matrix(0.04999999999999997,0,0,0.04999999999999997,39.949999999999974,0)" xlink:href="#aB"/><use transform="matrix(0.04999999999999997,0,0,0.04999999999999997,51.94999999999997,0)" xlink:href="#aD"/></g><g id="R"><use transform="matrix(0.04999999999999997,0,0,0.04999999999999997,0,0)" xlink:href="#aA"/><use transform="matrix(0.04999999999999997,0,0,0.04999999999999997,9.999999999999993,0)" xlink:href="#aB"/><use transform="matrix(0.04999999999999997,0,0,0.04999999999999997,21.999999999999986,0)" xlink:href="#az"/></g><g id="S"><use transform="matrix(0.04999999999999997,0,0,0.04999999999999997,0,0)" xlink:href="#aQ"/><use transform="matrix(0.04999999999999997,0,0,0.04999999999999997,10.949999999999992,0)" xlink:href="#aP"/><use transform="matrix(0.04999999999999997,0,0,0.04999999999999997,22.949999999999985,0)" xlink:href="#aM"/><use transform="matrix(0.04999999999999997,0,0,0.04999999999999997,35.89999999999998,0)" xlink:href="#aL"/><use transform="matrix(0.04999999999999997,0,0,0.04999999999999997,48.849999999999966,0)" xlink:href="#aN"/><use transform="matrix(0.04999999999999997,0,0,0.04999999999999997,61.79999999999995,0)" xlink:href="#aR"/><use transform="matrix(0.04999999999999997,0,0,0.04999999999999997,66.79999999999995,0)" xlink:href="#aN"/><use transform="matrix(0.04999999999999997,0,0,0.04999999999999997,79.74999999999994,0)" xlink:href="#aO"/></g><path fill="#333" d="M182-130c37 4 62 22 62 59C244 23 116-4 24 0v-248c84 5 203-23 205 63 0 31-19 50-47 55zM76-148c40-3 101 13 101-30 0-44-60-28-101-31v61zm0 110c48-3 116 14 116-37 0-48-69-32-116-35v72" id="bn"/><path fill="#333" d="M176-78C186 10 51 31 16-35c-5-9-9-19-11-32l52-8c4 21 12 37 35 38 23 0 32-16 32-40v-130H75v-41h101v170" id="bo"/><path fill="#333" d="M67-125c0 53 21 87 73 88 37 1 54-22 65-47l45 17C233-25 199 4 140 4 58 4 20-42 15-125 8-235 124-281 211-232c18 10 29 29 36 50l-46 12c-8-25-30-41-62-41-52 0-71 34-72 86" id="bp"/><g id="T"><use transform="matrix(0.04999999999999997,0,0,0.04999999999999997,0,0)" xlink:href="#aK"/><use transform="matrix(0.04999999999999997,0,0,0.04999999999999997,13.999999999999991,0)" xlink:href="#bn"/><use transform="matrix(0.04999999999999997,0,0,0.04999999999999997,26.94999999999998,0)" xlink:href="#bo"/><use transform="matrix(0.04999999999999997,0,0,0.04999999999999997,36.949999999999974,0)" xlink:href="#aP"/><use transform="matrix(0.04999999999999997,0,0,0.04999999999999997,48.94999999999997,0)" xlink:href="#bp"/><use transform="matrix(0.04999999999999997,0,0,0.04999999999999997,61.89999999999996,0)" xlink:href="#ba"/><use transform="matrix(0.04999999999999997,0,0,0.04999999999999997,72.84999999999995,0)" xlink:href="#bb"/></g><g id="U"><use transform="matrix(0.04999999999999997,0,0,0.04999999999999997,0,0)" xlink:href="#aC"/><use transform="matrix(0.04999999999999997,0,0,0.04999999999999997,10.649999999999993,0)" xlink:href="#bc"/><use transform="matrix(0.04999999999999997,0,0,0.04999999999999997,22.649999999999984,0)" xlink:href="#aB"/><use transform="matrix(0.04999999999999997,0,0,0.04999999999999997,34.64999999999998,0)" xlink:href="#aH"/></g><g id="V"><use transform="matrix(0.04999999999999997,0,0,0.04999999999999997,0,0)" xlink:href="#aA"/><use transform="matrix(0.04999999999999997,0,0,0.04999999999999997,9.999999999999993,0)" xlink:href="#aB"/><use transform="matrix(0.04999999999999997,0,0,0.04999999999999997,21.999999999999986,0)" xlink:href="#az"/></g><g id="W"><use transform="matrix(0.04999999999999997,0,0,0.04999999999999997,0,0)" xlink:href="#bo"/><use transform="matrix(0.04999999999999997,0,0,0.04999999999999997,9.999999999999993,0)" xlink:href="#aK"/><use transform="matrix(0.04999999999999997,0,0,0.04999999999999997,23.999999999999986,0)" xlink:href="#bn"/><use transform="matrix(0.04999999999999997,0,0,0.04999999999999997,36.949999999999974,0)" xlink:href="#bb"/></g><path fill="#333" d="M195 0l-88-114-31 24V0H24v-248h52v113l112-113h60L142-143 257 0h-62" id="bq"/><g id="X"><use transform="matrix(0.04999999999999997,0,0,0.04999999999999997,0,0)" xlink:href="#bb"/><use transform="matrix(0.04999999999999997,0,0,0.04999999999999997,11.999999999999993,0)" xlink:href="#bq"/><use transform="matrix(0.04999999999999997,0,0,0.04999999999999997,24.949999999999985,0)" xlink:href="#aR"/><use transform="matrix(0.04999999999999997,0,0,0.04999999999999997,29.94999999999998,0)" xlink:href="#aQ"/><use transform="matrix(0.04999999999999997,0,0,0.04999999999999997,40.89999999999998,0)" xlink:href="#aQ"/><use transform="matrix(0.04999999999999997,0,0,0.04999999999999997,51.849999999999966,0)" xlink:href="#bb"/></g><path fill="#333" d="M47-170H22l-4-78h33" id="br"/><g id="Y"><use transform="matrix(0.04999999999999997,0,0,0.04999999999999997,0,0)" xlink:href="#aA"/><use transform="matrix(0.04999999999999997,0,0,0.04999999999999997,9.999999999999993,0)" xlink:href="#br"/><use transform="matrix(0.04999999999999997,0,0,0.04999999999999997,13.399999999999991,0)" xlink:href="#aB"/><use transform="matrix(0.04999999999999997,0,0,0.04999999999999997,25.399999999999984,0)" xlink:href="#aE"/><use transform="matrix(0.04999999999999997,0,0,0.04999999999999997,38.34999999999998,0)" xlink:href="#aI"/><use transform="matrix(0.04999999999999997,0,0,0.04999999999999997,49.29999999999997,0)" xlink:href="#aD"/><use transform="matrix(0.04999999999999997,0,0,0.04999999999999997,62.24999999999996,0)" xlink:href="#aB"/><use transform="matrix(0.04999999999999997,0,0,0.04999999999999997,74.24999999999994,0)" xlink:href="#aU"/><use transform="matrix(0.04999999999999997,0,0,0.04999999999999997,86.24999999999994,0)" xlink:href="#aD"/><use transform="matrix(0.04999999999999997,0,0,0.04999999999999997,99.19999999999993,0)" xlink:href="#aF"/><use transform="matrix(0.04999999999999997,0,0,0.04999999999999997,104.19999999999993,0)" xlink:href="#az"/><use transform="matrix(0.04999999999999997,0,0,0.04999999999999997,116.19999999999993,0)" xlink:href="#aB"/></g></defs></g></svg>